<svg xmlns="http://www.w3.org/2000/svg" xmlns:xlink="http://www.w3.org/1999/xlink" width="500" zoomAndPan="magnify" viewBox="0 0 375 374.999991" height="500" preserveAspectRatio="xMidYMid meet" version="1.0"><defs><g/><clipPath id="610e3fd50d"><path d="M 174 124.3125 L 201 124.3125 L 201 161 L 174 161 Z M 174 124.3125 " clip-rule="nonzero"/></clipPath><clipPath id="9e0852ed5a"><path d="M 151.25 147 L 188 147 L 188 175 L 151.25 175 Z M 151.25 147 " clip-rule="nonzero"/></clipPath></defs><rect x="-37.5" width="450" fill="#ffffff" y="-37.499999" height="449.999989" fill-opacity="1"/><rect x="-37.5" width="450" fill="#ffffff" y="-37.499999" height="449.999989" fill-opacity="1"/><path fill="#a6a6a6" d="M 195.390625 196.765625 L 179.582031 196.765625 C 176.53125 196.765625 174.035156 194.269531 174.035156 191.21875 L 174.035156 183.542969 L 177.730469 183.542969 L 177.730469 191.21875 C 177.730469 192.238281 178.5625 193.070312 179.582031 193.070312 L 195.390625 193.070312 C 196.410156 193.070312 197.242188 192.238281 197.242188 191.21875 L 197.242188 160.558594 L 200.941406 160.558594 L 200.941406 191.21875 C 200.941406 194.269531 198.460938 196.765625 195.390625 196.765625 Z M 195.390625 196.765625 " fill-opacity="1" fill-rule="nonzero"/><g clip-path="url(#610e3fd50d)"><path fill="#03989e" d="M 177.730469 160.558594 L 174.035156 160.558594 L 174.035156 129.898438 C 174.035156 126.84375 176.53125 124.347656 179.582031 124.347656 L 195.390625 124.347656 C 198.445312 124.347656 200.941406 126.84375 200.941406 129.898438 L 200.941406 137.570312 L 197.242188 137.570312 L 197.242188 129.898438 C 197.242188 128.878906 196.410156 128.046875 195.390625 128.046875 L 179.582031 128.046875 C 178.5625 128.046875 177.730469 128.878906 177.730469 129.898438 Z M 177.730469 160.558594 " fill-opacity="1" fill-rule="nonzero"/></g><g clip-path="url(#9e0852ed5a)"><path fill="#03989e" d="M 187.496094 174.019531 L 156.835938 174.019531 C 153.785156 174.019531 151.285156 171.523438 151.285156 168.472656 L 151.285156 152.660156 C 151.285156 149.609375 153.785156 147.113281 156.835938 147.113281 L 164.507812 147.113281 L 164.507812 150.8125 L 156.835938 150.8125 C 155.816406 150.8125 154.984375 151.644531 154.984375 152.660156 L 154.984375 168.472656 C 154.984375 169.488281 155.816406 170.324219 156.835938 170.324219 L 187.496094 170.324219 Z M 187.496094 174.019531 " fill-opacity="1" fill-rule="nonzero"/></g><path fill="#a6a6a6" d="M 218.15625 174.019531 L 210.484375 174.019531 L 210.484375 170.324219 L 218.15625 170.324219 C 219.175781 170.324219 220.007812 169.488281 220.007812 168.472656 L 220.007812 152.660156 C 220.007812 151.644531 219.175781 150.8125 218.15625 150.8125 L 187.496094 150.8125 L 187.496094 147.113281 L 218.15625 147.113281 C 221.207031 147.113281 223.707031 149.609375 223.707031 152.660156 L 223.707031 168.472656 C 223.707031 171.523438 221.207031 174.019531 218.15625 174.019531 Z M 218.15625 174.019531 " fill-opacity="1" fill-rule="nonzero"/><g fill="#03989e" fill-opacity="1"><g transform="translate(116.812186, 228.662738)"><g><path d="M 19.421875 -19.796875 L 19.421875 -8.203125 C 19.421875 -5.617188 18.65625 -3.582031 17.125 -2.09375 C 15.601562 -0.601562 13.503906 0.140625 10.828125 0.140625 C 8.148438 0.140625 6.039062 -0.601562 4.5 -2.09375 C 2.96875 -3.582031 2.203125 -5.617188 2.203125 -8.203125 L 2.203125 -19.796875 L 5.546875 -19.796875 L 5.546875 -8.203125 C 5.546875 -6.546875 6.019531 -5.238281 6.96875 -4.28125 C 7.925781 -3.332031 9.222656 -2.859375 10.859375 -2.859375 C 12.484375 -2.859375 13.757812 -3.328125 14.6875 -4.265625 C 15.625 -5.210938 16.09375 -6.523438 16.09375 -8.203125 L 16.09375 -19.796875 Z M 19.421875 -19.796875 "/></g></g></g><g fill="#03989e" fill-opacity="1"><g transform="translate(142.648703, 228.662738)"><g><path d="M 2.609375 -19.796875 L 10.5 -19.796875 C 12.976562 -19.796875 14.898438 -19.207031 16.265625 -18.03125 C 17.640625 -16.851562 18.328125 -15.1875 18.328125 -13.03125 C 18.328125 -10.789062 17.640625 -9.050781 16.265625 -7.8125 C 14.898438 -6.582031 12.976562 -5.96875 10.5 -5.96875 L 5.9375 -5.96875 L 5.9375 0 L 2.609375 0 Z M 5.9375 -16.796875 L 5.9375 -8.96875 L 10.34375 -8.96875 C 13.53125 -8.96875 15.125 -10.296875 15.125 -12.953125 C 15.125 -15.515625 13.53125 -16.796875 10.34375 -16.796875 Z M 5.9375 -16.796875 "/></g></g></g><g fill="#03989e" fill-opacity="1"><g transform="translate(165.913047, 228.662738)"><g><path d="M 11.375 -19.875 C 12.769531 -19.875 14.128906 -19.601562 15.453125 -19.0625 C 16.785156 -18.53125 17.929688 -17.785156 18.890625 -16.828125 L 16.9375 -14.390625 C 16.21875 -15.160156 15.367188 -15.769531 14.390625 -16.21875 C 13.410156 -16.675781 12.421875 -16.90625 11.421875 -16.90625 C 9.441406 -16.90625 7.769531 -16.234375 6.40625 -14.890625 C 5.039062 -13.546875 4.359375 -11.898438 4.359375 -9.953125 C 4.359375 -7.992188 5.039062 -6.335938 6.40625 -4.984375 C 7.769531 -3.640625 9.441406 -2.96875 11.421875 -2.96875 C 13.484375 -2.96875 15.320312 -3.75 16.9375 -5.3125 L 18.921875 -3.109375 C 17.898438 -2.109375 16.710938 -1.316406 15.359375 -0.734375 C 14.003906 -0.148438 12.632812 0.140625 11.25 0.140625 C 8.351562 0.140625 5.914062 -0.820312 3.9375 -2.75 C 1.957031 -4.6875 0.96875 -7.078125 0.96875 -9.921875 C 0.96875 -12.734375 1.96875 -15.09375 3.96875 -17 C 5.976562 -18.914062 8.445312 -19.875 11.375 -19.875 Z M 11.375 -19.875 "/></g></g></g><g fill="#03989e" fill-opacity="1"><g transform="translate(189.855773, 228.662738)"><g><path d="M 15.390625 -4.46875 L 5.40625 -4.46875 L 3.5 0 L 0.03125 0 L 8.765625 -19.796875 L 12.1875 -19.796875 L 20.84375 0 L 17.28125 0 Z M 14.109375 -7.4375 L 10.375 -16.234375 L 6.640625 -7.4375 Z M 14.109375 -7.4375 "/></g></g></g><g fill="#03989e" fill-opacity="1"><g transform="translate(214.957385, 228.662738)"><g><path d="M 15.15625 0 L 11.53125 -6 C 11.34375 -5.976562 11.046875 -5.96875 10.640625 -5.96875 L 5.9375 -5.96875 L 5.9375 0 L 2.609375 0 L 2.609375 -19.796875 L 10.640625 -19.796875 C 13.160156 -19.796875 15.117188 -19.207031 16.515625 -18.03125 C 17.910156 -16.851562 18.609375 -15.1875 18.609375 -13.03125 C 18.609375 -11.445312 18.253906 -10.109375 17.546875 -9.015625 C 16.835938 -7.921875 15.828125 -7.125 14.515625 -6.625 L 18.953125 0 Z M 5.9375 -8.96875 L 10.640625 -8.96875 C 13.835938 -8.96875 15.4375 -10.296875 15.4375 -12.953125 C 15.4375 -15.515625 13.835938 -16.796875 10.640625 -16.796875 L 5.9375 -16.796875 Z M 5.9375 -8.96875 "/></g></g></g><g fill="#03989e" fill-opacity="1"><g transform="translate(239.635023, 228.662738)"><g><path d="M 16.75 -16.796875 L 5.9375 -16.796875 L 5.9375 -11.453125 L 15.609375 -11.453125 L 15.609375 -8.453125 L 5.9375 -8.453125 L 5.9375 -3 L 17.078125 -3 L 17.078125 0 L 2.609375 0 L 2.609375 -19.796875 L 16.75 -19.796875 Z M 16.75 -16.796875 "/></g></g></g><g fill="#a6a6a6" fill-opacity="1"><g transform="translate(91.427966, 248.687943)"><g><path d="M 8.3125 0 L 7.234375 0 L 7.21875 -5.234375 L 5.015625 -0.734375 L 4.234375 -0.734375 L 2.03125 -5.234375 L 2.03125 0 L 0.921875 0 L 0.921875 -7 L 2.3125 -7 L 4.625 -2.34375 L 6.9375 -7 L 8.3125 -7 Z M 8.3125 0 "/></g></g></g><g fill="#a6a6a6" fill-opacity="1"><g transform="translate(103.174315, 248.687943)"><g><path d="M 1.40625 -6.015625 C 2.125 -6.691406 3.003906 -7.03125 4.046875 -7.03125 C 5.097656 -7.03125 5.976562 -6.691406 6.6875 -6.015625 C 7.40625 -5.335938 7.765625 -4.5 7.765625 -3.5 C 7.765625 -2.5 7.40625 -1.65625 6.6875 -0.96875 C 5.976562 -0.289062 5.097656 0.046875 4.046875 0.046875 C 3.003906 0.046875 2.125 -0.289062 1.40625 -0.96875 C 0.695312 -1.65625 0.34375 -2.5 0.34375 -3.5 C 0.34375 -4.5 0.695312 -5.335938 1.40625 -6.015625 Z M 4.0625 -5.96875 C 3.363281 -5.96875 2.769531 -5.726562 2.28125 -5.25 C 1.789062 -4.78125 1.546875 -4.195312 1.546875 -3.5 C 1.546875 -2.800781 1.789062 -2.210938 2.28125 -1.734375 C 2.78125 -1.253906 3.375 -1.015625 4.0625 -1.015625 C 4.75 -1.015625 5.332031 -1.253906 5.8125 -1.734375 C 6.300781 -2.210938 6.546875 -2.800781 6.546875 -3.5 C 6.546875 -4.195312 6.300781 -4.78125 5.8125 -5.25 C 5.332031 -5.726562 4.75 -5.96875 4.0625 -5.96875 Z M 4.0625 -5.96875 "/></g></g></g><g fill="#a6a6a6" fill-opacity="1"><g transform="translate(113.771117, 248.687943)"><g><path d="M 6.984375 0 L 5.828125 0 L 2.09375 -5.015625 L 2.09375 0 L 0.921875 0 L 0.921875 -7 L 2.078125 -7 L 5.828125 -1.96875 L 5.828125 -7 L 6.984375 -7 Z M 6.984375 0 "/></g></g></g><g fill="#a6a6a6" fill-opacity="1"><g transform="translate(124.187984, 248.687943)"><g><path d="M 2.09375 0 L 0.921875 0 L 0.921875 -7 L 2.09375 -7 Z M 2.09375 0 "/></g></g></g><g fill="#a6a6a6" fill-opacity="1"><g transform="translate(129.706791, 248.687943)"><g><path d="M 5.703125 -5.9375 L 3.484375 -5.9375 L 3.484375 0 L 2.296875 0 L 2.296875 -5.9375 L 0.09375 -5.9375 L 0.09375 -7 L 5.703125 -7 Z M 5.703125 -5.9375 "/></g></g></g><g fill="#a6a6a6" fill-opacity="1"><g transform="translate(137.994496, 248.687943)"><g><path d="M 1.40625 -6.015625 C 2.125 -6.691406 3.003906 -7.03125 4.046875 -7.03125 C 5.097656 -7.03125 5.976562 -6.691406 6.6875 -6.015625 C 7.40625 -5.335938 7.765625 -4.5 7.765625 -3.5 C 7.765625 -2.5 7.40625 -1.65625 6.6875 -0.96875 C 5.976562 -0.289062 5.097656 0.046875 4.046875 0.046875 C 3.003906 0.046875 2.125 -0.289062 1.40625 -0.96875 C 0.695312 -1.65625 0.34375 -2.5 0.34375 -3.5 C 0.34375 -4.5 0.695312 -5.335938 1.40625 -6.015625 Z M 4.0625 -5.96875 C 3.363281 -5.96875 2.769531 -5.726562 2.28125 -5.25 C 1.789062 -4.78125 1.546875 -4.195312 1.546875 -3.5 C 1.546875 -2.800781 1.789062 -2.210938 2.28125 -1.734375 C 2.78125 -1.253906 3.375 -1.015625 4.0625 -1.015625 C 4.75 -1.015625 5.332031 -1.253906 5.8125 -1.734375 C 6.300781 -2.210938 6.546875 -2.800781 6.546875 -3.5 C 6.546875 -4.195312 6.300781 -4.78125 5.8125 -5.25 C 5.332031 -5.726562 4.75 -5.96875 4.0625 -5.96875 Z M 4.0625 -5.96875 "/></g></g></g><g fill="#a6a6a6" fill-opacity="1"><g transform="translate(148.591298, 248.687943)"><g><path d="M 5.359375 0 L 4.078125 -2.125 C 4.015625 -2.113281 3.910156 -2.109375 3.765625 -2.109375 L 2.09375 -2.109375 L 2.09375 0 L 0.921875 0 L 0.921875 -7 L 3.765625 -7 C 4.648438 -7 5.335938 -6.789062 5.828125 -6.375 C 6.328125 -5.957031 6.578125 -5.367188 6.578125 -4.609375 C 6.578125 -4.046875 6.453125 -3.570312 6.203125 -3.1875 C 5.953125 -2.800781 5.59375 -2.519531 5.125 -2.34375 L 6.703125 0 Z M 2.09375 -3.171875 L 3.765625 -3.171875 C 4.890625 -3.171875 5.453125 -3.640625 5.453125 -4.578125 C 5.453125 -5.484375 4.890625 -5.9375 3.765625 -5.9375 L 2.09375 -5.9375 Z M 2.09375 -3.171875 "/></g></g></g><g fill="#a6a6a6" fill-opacity="1"><g transform="translate(158.318438, 248.687943)"><g><path d="M 5.921875 -5.9375 L 2.09375 -5.9375 L 2.09375 -4.046875 L 5.515625 -4.046875 L 5.515625 -2.984375 L 2.09375 -2.984375 L 2.09375 -1.0625 L 6.046875 -1.0625 L 6.046875 0 L 0.921875 0 L 0.921875 -7 L 5.921875 -7 Z M 5.921875 -5.9375 "/></g></g></g><g fill="#a6a6a6" fill-opacity="1"><g transform="translate(167.375852, 248.687943)"><g><path d="M 5.4375 -1.578125 L 1.90625 -1.578125 L 1.234375 0 L 0.015625 0 L 3.09375 -7 L 4.3125 -7 L 7.375 0 L 6.109375 0 Z M 4.984375 -2.625 L 3.671875 -5.734375 L 2.34375 -2.625 Z M 4.984375 -2.625 "/></g></g></g><g fill="#a6a6a6" fill-opacity="1"><g transform="translate(177.252938, 248.687943)"><g/></g></g><g fill="#a6a6a6" fill-opacity="1"><g transform="translate(182.331917, 248.687943)"><g><path d="M 5.703125 -5.9375 L 3.484375 -5.9375 L 3.484375 0 L 2.296875 0 L 2.296875 -5.9375 L 0.09375 -5.9375 L 0.09375 -7 L 5.703125 -7 Z M 5.703125 -5.9375 "/></g></g></g><g fill="#a6a6a6" fill-opacity="1"><g transform="translate(190.619625, 248.687943)"><g><path d="M 6.875 -7 L 6.875 -2.90625 C 6.875 -1.988281 6.601562 -1.265625 6.0625 -0.734375 C 5.519531 -0.210938 4.773438 0.046875 3.828125 0.046875 C 2.878906 0.046875 2.132812 -0.210938 1.59375 -0.734375 C 1.050781 -1.265625 0.78125 -1.988281 0.78125 -2.90625 L 0.78125 -7 L 1.953125 -7 L 1.953125 -2.90625 C 1.953125 -2.3125 2.117188 -1.847656 2.453125 -1.515625 C 2.796875 -1.179688 3.257812 -1.015625 3.84375 -1.015625 C 4.414062 -1.015625 4.863281 -1.179688 5.1875 -1.515625 C 5.519531 -1.847656 5.6875 -2.3125 5.6875 -2.90625 L 5.6875 -7 Z M 6.875 -7 "/></g></g></g><g fill="#a6a6a6" fill-opacity="1"><g transform="translate(200.756606, 248.687943)"><g/></g></g><g fill="#a6a6a6" fill-opacity="1"><g transform="translate(205.835585, 248.687943)"><g><path d="M 0.921875 -7 L 3.953125 -7 C 4.679688 -7 5.253906 -6.84375 5.671875 -6.53125 C 6.097656 -6.21875 6.3125 -5.789062 6.3125 -5.25 C 6.3125 -4.851562 6.203125 -4.515625 5.984375 -4.234375 C 5.765625 -3.960938 5.460938 -3.78125 5.078125 -3.6875 C 5.546875 -3.601562 5.910156 -3.40625 6.171875 -3.09375 C 6.441406 -2.78125 6.578125 -2.390625 6.578125 -1.921875 C 6.578125 -1.316406 6.347656 -0.84375 5.890625 -0.5 C 5.441406 -0.164062 4.820312 0 4.03125 0 L 0.921875 0 Z M 2.09375 -5.953125 L 2.09375 -4.09375 L 3.90625 -4.09375 C 4.269531 -4.09375 4.554688 -4.175781 4.765625 -4.34375 C 4.984375 -4.507812 5.09375 -4.738281 5.09375 -5.03125 C 5.09375 -5.332031 4.988281 -5.5625 4.78125 -5.71875 C 4.570312 -5.875 4.28125 -5.953125 3.90625 -5.953125 Z M 2.09375 -3.0625 L 2.09375 -1.046875 L 3.90625 -1.046875 C 4.363281 -1.046875 4.722656 -1.132812 4.984375 -1.3125 C 5.242188 -1.488281 5.375 -1.738281 5.375 -2.0625 C 5.375 -2.375 5.242188 -2.617188 4.984375 -2.796875 C 4.722656 -2.972656 4.363281 -3.0625 3.90625 -3.0625 Z M 2.09375 -3.0625 "/></g></g></g><g fill="#a6a6a6" fill-opacity="1"><g transform="translate(215.392798, 248.687943)"><g><path d="M 2.09375 0 L 0.921875 0 L 0.921875 -7 L 2.09375 -7 Z M 2.09375 0 "/></g></g></g><g fill="#a6a6a6" fill-opacity="1"><g transform="translate(220.911607, 248.687943)"><g><path d="M 5.921875 -5.9375 L 2.09375 -5.9375 L 2.09375 -4.046875 L 5.515625 -4.046875 L 5.515625 -2.984375 L 2.09375 -2.984375 L 2.09375 -1.0625 L 6.046875 -1.0625 L 6.046875 0 L 0.921875 0 L 0.921875 -7 L 5.921875 -7 Z M 5.921875 -5.9375 "/></g></g></g><g fill="#a6a6a6" fill-opacity="1"><g transform="translate(229.969022, 248.687943)"><g><path d="M 6.984375 0 L 5.828125 0 L 2.09375 -5.015625 L 2.09375 0 L 0.921875 0 L 0.921875 -7 L 2.078125 -7 L 5.828125 -1.96875 L 5.828125 -7 L 6.984375 -7 Z M 6.984375 0 "/></g></g></g><g fill="#a6a6a6" fill-opacity="1"><g transform="translate(240.385891, 248.687943)"><g><path d="M 5.921875 -5.9375 L 2.09375 -5.9375 L 2.09375 -4.046875 L 5.515625 -4.046875 L 5.515625 -2.984375 L 2.09375 -2.984375 L 2.09375 -1.0625 L 6.046875 -1.0625 L 6.046875 0 L 0.921875 0 L 0.921875 -7 L 5.921875 -7 Z M 5.921875 -5.9375 "/></g></g></g><g fill="#a6a6a6" fill-opacity="1"><g transform="translate(249.443306, 248.687943)"><g><path d="M 3.21875 -7.046875 C 4.125 -7.046875 4.941406 -6.804688 5.671875 -6.328125 L 5.1875 -5.296875 C 4.46875 -5.722656 3.78125 -5.9375 3.125 -5.9375 C 2.769531 -5.9375 2.488281 -5.875 2.28125 -5.75 C 2.082031 -5.625 1.984375 -5.441406 1.984375 -5.203125 C 1.984375 -4.972656 2.078125 -4.773438 2.265625 -4.609375 C 2.453125 -4.453125 2.6875 -4.332031 2.96875 -4.25 C 3.25 -4.175781 3.550781 -4.082031 3.875 -3.96875 C 4.207031 -3.851562 4.507812 -3.726562 4.78125 -3.59375 C 5.0625 -3.46875 5.296875 -3.265625 5.484375 -2.984375 C 5.671875 -2.703125 5.765625 -2.367188 5.765625 -1.984375 C 5.765625 -1.367188 5.519531 -0.875 5.03125 -0.5 C 4.539062 -0.132812 3.90625 0.046875 3.125 0.046875 C 2.582031 0.046875 2.0625 -0.0507812 1.5625 -0.25 C 1.0625 -0.457031 0.628906 -0.726562 0.265625 -1.0625 L 0.765625 -2.09375 C 1.117188 -1.757812 1.503906 -1.503906 1.921875 -1.328125 C 2.347656 -1.148438 2.753906 -1.0625 3.140625 -1.0625 C 3.554688 -1.0625 3.878906 -1.132812 4.109375 -1.28125 C 4.335938 -1.4375 4.453125 -1.648438 4.453125 -1.921875 C 4.453125 -2.160156 4.359375 -2.359375 4.171875 -2.515625 C 3.984375 -2.679688 3.75 -2.800781 3.46875 -2.875 C 3.1875 -2.957031 2.878906 -3.050781 2.546875 -3.15625 C 2.222656 -3.269531 1.921875 -3.390625 1.640625 -3.515625 C 1.367188 -3.640625 1.140625 -3.835938 0.953125 -4.109375 C 0.765625 -4.378906 0.671875 -4.707031 0.671875 -5.09375 C 0.671875 -5.6875 0.898438 -6.160156 1.359375 -6.515625 C 1.828125 -6.867188 2.445312 -7.046875 3.21875 -7.046875 Z M 3.21875 -7.046875 "/></g></g></g><g fill="#a6a6a6" fill-opacity="1"><g transform="translate(258.160853, 248.687943)"><g><path d="M 5.703125 -5.9375 L 3.484375 -5.9375 L 3.484375 0 L 2.296875 0 L 2.296875 -5.9375 L 0.09375 -5.9375 L 0.09375 -7 L 5.703125 -7 Z M 5.703125 -5.9375 "/></g></g></g><g fill="#a6a6a6" fill-opacity="1"><g transform="translate(266.448561, 248.687943)"><g><path d="M 5.4375 -1.578125 L 1.90625 -1.578125 L 1.234375 0 L 0.015625 0 L 3.09375 -7 L 4.3125 -7 L 7.375 0 L 6.109375 0 Z M 4.984375 -2.625 L 3.671875 -5.734375 L 2.34375 -2.625 Z M 4.984375 -2.625 "/></g></g></g><g fill="#a6a6a6" fill-opacity="1"><g transform="translate(276.325647, 248.687943)"><g><path d="M 5.359375 0 L 4.078125 -2.125 C 4.015625 -2.113281 3.910156 -2.109375 3.765625 -2.109375 L 2.09375 -2.109375 L 2.09375 0 L 0.921875 0 L 0.921875 -7 L 3.765625 -7 C 4.648438 -7 5.335938 -6.789062 5.828125 -6.375 C 6.328125 -5.957031 6.578125 -5.367188 6.578125 -4.609375 C 6.578125 -4.046875 6.453125 -3.570312 6.203125 -3.1875 C 5.953125 -2.800781 5.59375 -2.519531 5.125 -2.34375 L 6.703125 0 Z M 2.09375 -3.171875 L 3.765625 -3.171875 C 4.890625 -3.171875 5.453125 -3.640625 5.453125 -4.578125 C 5.453125 -5.484375 4.890625 -5.9375 3.765625 -5.9375 L 2.09375 -5.9375 Z M 2.09375 -3.171875 "/></g></g></g></svg>